<svg width="81" height="82" viewBox="0 0 81 82" fill="none" xmlns="http://www.w3.org/2000/svg">
<g filter="url(#filter0_d_723_5)">
<g filter="url(#filter1_d_723_5)">
<path d="M36.4645 33.4645C34.5118 35.4171 34.5118 38.5829 36.4645 40.5355L68.2843 72.3553C70.2369 74.308 73.4027 74.308 75.3553 72.3553C77.308 70.4027 77.308 67.2369 75.3553 65.2843L47.0711 37L75.3553 8.71573C77.308 6.76311 77.308 3.59728 75.3553 1.64466C73.4027 -0.307961 70.2369 -0.307961 68.2843 1.64466L36.4645 33.4645ZM44.5355 40.5355C46.4882 38.5829 46.4882 35.4171 44.5355 33.4645L12.7157 1.64466C10.7631 -0.307961 7.59728 -0.307961 5.64466 1.64466C3.69204 3.59728 3.69204 6.76311 5.64466 8.71573L33.9289 37L5.64466 65.2843C3.69204 67.2369 3.69204 70.4027 5.64466 72.3553C7.59728 74.308 10.7631 74.308 12.7157 72.3553L44.5355 40.5355ZM40 42H41V32H40V42Z" fill="white"/>
</g>
<g filter="url(#filter2_d_723_5)">
<path d="M36.4645 33.4645C34.5118 35.4171 34.5118 38.5829 36.4645 40.5355L68.2843 72.3553C70.2369 74.308 73.4027 74.308 75.3553 72.3553C77.308 70.4027 77.308 67.2369 75.3553 65.2843L47.0711 37L75.3553 8.71573C77.308 6.7631 77.308 3.59728 75.3553 1.64466C73.4027 -0.307963 70.2369 -0.307963 68.2843 1.64466L36.4645 33.4645ZM41 32L40 32L40 42L41 42L41 32Z" fill="white"/>
</g>
</g>
<defs>
<filter id="filter0_d_723_5" x="0.180176" y="0.180176" width="80.6396" height="81.6396" filterUnits="userSpaceOnUse" color-interpolation-filters="sRGB">
<feFlood flood-opacity="0" result="BackgroundImageFix"/>
<feColorMatrix in="SourceAlpha" type="matrix" values="0 0 0 0 0 0 0 0 0 0 0 0 0 0 0 0 0 0 127 0" result="hardAlpha"/>
<feOffset dy="4"/>
<feGaussianBlur stdDeviation="2"/>
<feComposite in2="hardAlpha" operator="out"/>
<feColorMatrix type="matrix" values="0 0 0 0 1 0 0 0 0 1 0 0 0 0 1 0 0 0 0.3 0"/>
<feBlend mode="normal" in2="BackgroundImageFix" result="effect1_dropShadow_723_5"/>
<feBlend mode="normal" in="SourceGraphic" in2="effect1_dropShadow_723_5" result="shape"/>
</filter>
<filter id="filter1_d_723_5" x="0.180176" y="0.180176" width="80.6396" height="81.6396" filterUnits="userSpaceOnUse" color-interpolation-filters="sRGB">
<feFlood flood-opacity="0" result="BackgroundImageFix"/>
<feColorMatrix in="SourceAlpha" type="matrix" values="0 0 0 0 0 0 0 0 0 0 0 0 0 0 0 0 0 0 127 0" result="hardAlpha"/>
<feOffset dy="4"/>
<feGaussianBlur stdDeviation="2"/>
<feComposite in2="hardAlpha" operator="out"/>
<feColorMatrix type="matrix" values="0 0 0 0 1 0 0 0 0 1 0 0 0 0 1 0 0 0 0.25 0"/>
<feBlend mode="normal" in2="BackgroundImageFix" result="effect1_dropShadow_723_5"/>
<feBlend mode="normal" in="SourceGraphic" in2="effect1_dropShadow_723_5" result="shape"/>
</filter>
<filter id="filter2_d_723_5" x="31" y="0.180176" width="49.8198" height="81.6396" filterUnits="userSpaceOnUse" color-interpolation-filters="sRGB">
<feFlood flood-opacity="0" result="BackgroundImageFix"/>
<feColorMatrix in="SourceAlpha" type="matrix" values="0 0 0 0 0 0 0 0 0 0 0 0 0 0 0 0 0 0 127 0" result="hardAlpha"/>
<feOffset dy="4"/>
<feGaussianBlur stdDeviation="2"/>
<feComposite in2="hardAlpha" operator="out"/>
<feColorMatrix type="matrix" values="0 0 0 0 1 0 0 0 0 1 0 0 0 0 1 0 0 0 0.25 0"/>
<feBlend mode="normal" in2="BackgroundImageFix" result="effect1_dropShadow_723_5"/>
<feBlend mode="normal" in="SourceGraphic" in2="effect1_dropShadow_723_5" result="shape"/>
</filter>
</defs>
</svg>
